<svg xmlns="http://www.w3.org/2000/svg" width="1304" height="918" viewBox="0 0 1304 918">

<defs>
  <marker id="arrow" markerWidth="10" markerHeight="10" refX="9" refY="3" orient="auto" markerUnits="strokeWidth">
    <path d="M0,0 L0,6 L9,3 z" fill="#475569"/>
  </marker>
  <filter id="shadow" x="-20%" y="-20%" width="140%" height="140%">
    <feDropShadow dx="0" dy="2" stdDeviation="2" flood-color="#94a3b8" flood-opacity="0.25"/>
  </filter>
</defs>

<rect x="0" y="0" width="100%" height="100%" fill="white"/>
<text x="42" y="38" font-family="Segoe UI, Arial, sans-serif" font-size="22" font-weight="700" fill="#0f172a">Alternativa A - C4 Nivel 1 Contexto</text>
<text x="42" y="66" font-family="Segoe UI, Arial, sans-serif" font-size="13" font-weight="400" fill="#475569">Un unico sistema en alcance; detalle tecnologico en Nivel 2.</text>
<text x="42" y="88" font-family="Segoe UI, Arial, sans-serif" font-size="11" font-weight="400" fill="#64748b">Fuente: alternativa_A_n1_contexto.md</text>
<g filter="url(#shadow)"><rect x="42" y="146" width="300" height="684" rx="14" fill="#f0fdf4" stroke="#16a34a" stroke-width="2" opacity="0.72"/></g>
<text x="58" y="176" font-family="Segoe UI, Arial, sans-serif" font-size="14" font-weight="700" fill="#16a34a">Personas</text>

<rect x="71" y="198" width="242" height="78" rx="10" fill="#f0fdf4" stroke="#16a34a" stroke-width="2"/>
<text x="192" y="234" text-anchor="middle" font-family="Segoe UI, Arial, sans-serif" font-size="13" fill="#0f172a">Cliente B2B / Retail</text>
<text x="192" y="251" text-anchor="middle" font-family="Segoe UI, Arial, sans-serif" font-size="13" fill="#0f172a">ordenes y trazabilidad</text>


<rect x="71" y="300" width="242" height="78" rx="10" fill="#f0fdf4" stroke="#16a34a" stroke-width="2"/>
<text x="192" y="336" text-anchor="middle" font-family="Segoe UI, Arial, sans-serif" font-size="13" fill="#0f172a">Conductor</text>
<text x="192" y="353" text-anchor="middle" font-family="Segoe UI, Arial, sans-serif" font-size="13" fill="#0f172a">entregas y evidencias</text>


<rect x="71" y="402" width="242" height="78" rx="10" fill="#f0fdf4" stroke="#16a34a" stroke-width="2"/>
<text x="192" y="438" text-anchor="middle" font-family="Segoe UI, Arial, sans-serif" font-size="13" fill="#0f172a">Operacion RutaExpress</text>
<text x="192" y="455" text-anchor="middle" font-family="Segoe UI, Arial, sans-serif" font-size="13" fill="#0f172a">SLA y excepciones</text>


<rect x="71" y="504" width="242" height="78" rx="10" fill="#f0fdf4" stroke="#16a34a" stroke-width="2"/>
<text x="192" y="540" text-anchor="middle" font-family="Segoe UI, Arial, sans-serif" font-size="13" fill="#0f172a">Finanzas</text>
<text x="192" y="557" text-anchor="middle" font-family="Segoe UI, Arial, sans-serif" font-size="13" fill="#0f172a">conciliacion</text>

<g filter="url(#shadow)"><rect x="502" y="146" width="300" height="684" rx="14" fill="#f8fafc" stroke="#0f172a" stroke-width="2" opacity="0.72"/></g>
<text x="518" y="176" font-family="Segoe UI, Arial, sans-serif" font-size="14" font-weight="700" fill="#0f172a">Sistema en alcance</text>

<rect x="531" y="198" width="242" height="78" rx="10" fill="#f8fafc" stroke="#0f172a" stroke-width="2"/>
<text x="652" y="218" text-anchor="middle" font-family="Segoe UI, Arial, sans-serif" font-size="13" fill="#0f172a">Plataforma Logistica</text>
<text x="652" y="235" text-anchor="middle" font-family="Segoe UI, Arial, sans-serif" font-size="13" fill="#0f172a">RutaExpress TO BE</text>
<text x="652" y="252" text-anchor="middle" font-family="Segoe UI, Arial, sans-serif" font-size="13" fill="#0f172a">Alt A: gobierno e</text>
<text x="652" y="269" text-anchor="middle" font-family="Segoe UI, Arial, sans-serif" font-size="13" fill="#0f172a">integracion centralizados</text>

<g filter="url(#shadow)"><rect x="962" y="146" width="300" height="684" rx="14" fill="#f8fafc" stroke="#64748b" stroke-width="2" opacity="0.72"/></g>
<text x="978" y="176" font-family="Segoe UI, Arial, sans-serif" font-size="14" font-weight="700" fill="#64748b">Sistemas externos</text>

<rect x="991" y="198" width="242" height="78" rx="10" fill="#f8fafc" stroke="#64748b" stroke-width="2"/>
<text x="1112" y="242" text-anchor="middle" font-family="Segoe UI, Arial, sans-serif" font-size="13" fill="#0f172a">WMS APP-06 / APP-07</text>


<rect x="991" y="300" width="242" height="78" rx="10" fill="#f8fafc" stroke="#64748b" stroke-width="2"/>
<text x="1112" y="344" text-anchor="middle" font-family="Segoe UI, Arial, sans-serif" font-size="13" fill="#0f172a">TMS APP-11</text>


<rect x="991" y="402" width="242" height="78" rx="10" fill="#f8fafc" stroke="#64748b" stroke-width="2"/>
<text x="1112" y="446" text-anchor="middle" font-family="Segoe UI, Arial, sans-serif" font-size="13" fill="#0f172a">ERP APP-25</text>


<rect x="991" y="504" width="242" height="78" rx="10" fill="#f8fafc" stroke="#64748b" stroke-width="2"/>
<text x="1112" y="548" text-anchor="middle" font-family="Segoe UI, Arial, sans-serif" font-size="13" fill="#0f172a">Portal B2B / CRM</text>


<rect x="991" y="606" width="242" height="78" rx="10" fill="#f8fafc" stroke="#64748b" stroke-width="2"/>
<text x="1112" y="650" text-anchor="middle" font-family="Segoe UI, Arial, sans-serif" font-size="13" fill="#0f172a">Clientes SaaS y legados</text>


<rect x="991" y="708" width="242" height="78" rx="10" fill="#f8fafc" stroke="#64748b" stroke-width="2"/>
<text x="1112" y="752" text-anchor="middle" font-family="Segoe UI, Arial, sans-serif" font-size="13" fill="#0f172a">Servicios mapas / trafico</text>


<path d="M 313 237 L 422 237 L 422 237 L 531 237" fill="none" stroke="#475569" stroke-width="2" marker-end="url(#arrow)"/>
<rect x="383" y="226" width="78" height="22" rx="6" fill="white" stroke="#cbd5e1"/><text x="422" y="241" text-anchor="middle" font-family="Segoe UI, Arial, sans-serif" font-size="10" fill="#334155">ordenes</text>


<path d="M 313 339 L 398 339 L 398 237 L 531 237" fill="none" stroke="#475569" stroke-width="2" marker-end="url(#arrow)"/>
<rect x="359" y="277" width="78" height="22" rx="6" fill="white" stroke="#cbd5e1"/><text x="398" y="292" text-anchor="middle" font-family="Segoe UI, Arial, sans-serif" font-size="10" fill="#334155">entregas</text>


<path d="M 313 441 L 446 441 L 446 237 L 531 237" fill="none" stroke="#475569" stroke-width="2" marker-end="url(#arrow)"/>
<rect x="407" y="328" width="78" height="22" rx="6" fill="white" stroke="#cbd5e1"/><text x="446" y="343" text-anchor="middle" font-family="Segoe UI, Arial, sans-serif" font-size="10" fill="#334155">gestion</text>


<path d="M 313 543 L 374 543 L 374 237 L 531 237" fill="none" stroke="#475569" stroke-width="2" marker-end="url(#arrow)"/>
<rect x="327" y="379" width="94" height="22" rx="6" fill="white" stroke="#cbd5e1"/><text x="374" y="394" text-anchor="middle" font-family="Segoe UI, Arial, sans-serif" font-size="10" fill="#334155">conciliacion</text>


<path d="M 773 237 L 882 237 L 882 237 L 991 237" fill="none" stroke="#475569" stroke-width="2" marker-end="url(#arrow)"/>
<rect x="841" y="226" width="82" height="22" rx="6" fill="white" stroke="#cbd5e1"/><text x="882" y="241" text-anchor="middle" font-family="Segoe UI, Arial, sans-serif" font-size="10" fill="#334155">inventario</text>


<path d="M 773 237 L 858 237 L 858 339 L 991 339" fill="none" stroke="#475569" stroke-width="2" marker-end="url(#arrow)"/>
<rect x="819" y="277" width="78" height="22" rx="6" fill="white" stroke="#cbd5e1"/><text x="858" y="292" text-anchor="middle" font-family="Segoe UI, Arial, sans-serif" font-size="10" fill="#334155">rutas</text>


<path d="M 773 237 L 906 237 L 906 441 L 991 441" fill="none" stroke="#475569" stroke-width="2" marker-end="url(#arrow)"/>
<rect x="867" y="328" width="78" height="22" rx="6" fill="white" stroke="#cbd5e1"/><text x="906" y="343" text-anchor="middle" font-family="Segoe UI, Arial, sans-serif" font-size="10" fill="#334155">finanzas</text>


<path d="M 773 237 L 834 237 L 834 543 L 991 543" fill="none" stroke="#475569" stroke-width="2" marker-end="url(#arrow)"/>
<rect x="787" y="379" width="94" height="22" rx="6" fill="white" stroke="#cbd5e1"/><text x="834" y="394" text-anchor="middle" font-family="Segoe UI, Arial, sans-serif" font-size="10" fill="#334155">trazabilidad</text>


<path d="M 991 645 L 930 645 L 930 237 L 773 237" fill="none" stroke="#475569" stroke-width="2" marker-end="url(#arrow)"/>
<rect x="883" y="430" width="94" height="22" rx="6" fill="white" stroke="#cbd5e1"/><text x="930" y="445" text-anchor="middle" font-family="Segoe UI, Arial, sans-serif" font-size="10" fill="#334155">archivos/API</text>


<path d="M 773 237 L 814 237 L 814 747 L 991 747" fill="none" stroke="#475569" stroke-width="2" marker-end="url(#arrow)"/>
<rect x="775" y="481" width="78" height="22" rx="6" fill="white" stroke="#cbd5e1"/><text x="814" y="496" text-anchor="middle" font-family="Segoe UI, Arial, sans-serif" font-size="10" fill="#334155">trafico</text>

</svg>