<svg xmlns="http://www.w3.org/2000/svg" width="2224" height="1150" viewBox="0 0 2224 1150">

<defs>
  <marker id="arrow" markerWidth="10" markerHeight="10" refX="9" refY="3" orient="auto" markerUnits="strokeWidth">
    <path d="M0,0 L0,6 L9,3 z" fill="#475569"/>
  </marker>
  <filter id="shadow" x="-20%" y="-20%" width="140%" height="140%">
    <feDropShadow dx="0" dy="2" stdDeviation="2" flood-color="#94a3b8" flood-opacity="0.25"/>
  </filter>
</defs>

<rect x="0" y="0" width="100%" height="100%" fill="white"/>
<text x="42" y="38" font-family="Segoe UI, Arial, sans-serif" font-size="22" font-weight="700" fill="#0f172a">Alternativa A - C4 Nivel 2 Contenedores</text>
<text x="42" y="66" font-family="Segoe UI, Arial, sans-serif" font-size="13" font-weight="400" fill="#475569">Aplicaciones y data stores dentro del sistema en alcance.</text>
<text x="42" y="88" font-family="Segoe UI, Arial, sans-serif" font-size="11" font-weight="400" fill="#64748b">Fuente: alternativa_A_n2_contenedores.md</text>
<g filter="url(#shadow)"><rect x="42" y="146" width="300" height="786" rx="14" fill="#f0fdf4" stroke="#16a34a" stroke-width="2" opacity="0.72"/></g>
<text x="58" y="176" font-family="Segoe UI, Arial, sans-serif" font-size="14" font-weight="700" fill="#16a34a">Personas/canales</text>

<rect x="71" y="198" width="242" height="78" rx="10" fill="#f0fdf4" stroke="#16a34a" stroke-width="2"/>
<text x="192" y="242" text-anchor="middle" font-family="Segoe UI, Arial, sans-serif" font-size="13" fill="#0f172a">Cliente B2B / Portal</text>


<rect x="71" y="300" width="242" height="78" rx="10" fill="#f0fdf4" stroke="#16a34a" stroke-width="2"/>
<text x="192" y="336" text-anchor="middle" font-family="Segoe UI, Arial, sans-serif" font-size="13" fill="#0f172a">App Conductores</text>
<text x="192" y="353" text-anchor="middle" font-family="Segoe UI, Arial, sans-serif" font-size="13" fill="#0f172a">APP-15</text>


<rect x="71" y="402" width="242" height="78" rx="10" fill="#f0fdf4" stroke="#16a34a" stroke-width="2"/>
<text x="192" y="446" text-anchor="middle" font-family="Segoe UI, Arial, sans-serif" font-size="13" fill="#0f172a">Operacion / Soporte</text>

<g filter="url(#shadow)"><rect x="502" y="146" width="300" height="786" rx="14" fill="#e0f2fe" stroke="#0284c7" stroke-width="2" opacity="0.72"/></g>
<text x="518" y="176" font-family="Segoe UI, Arial, sans-serif" font-size="14" font-weight="700" fill="#0284c7">Azure</text>

<rect x="531" y="198" width="242" height="78" rx="10" fill="#e0f2fe" stroke="#0284c7" stroke-width="2"/>
<text x="652" y="234" text-anchor="middle" font-family="Segoe UI, Arial, sans-serif" font-size="13" fill="#0f172a">Gateway y Gobierno API</text>
<text x="652" y="251" text-anchor="middle" font-family="Segoe UI, Arial, sans-serif" font-size="13" fill="#0f172a">Azure API Management</text>


<rect x="531" y="300" width="242" height="78" rx="10" fill="#e0f2fe" stroke="#0284c7" stroke-width="2"/>
<text x="652" y="336" text-anchor="middle" font-family="Segoe UI, Arial, sans-serif" font-size="13" fill="#0f172a">OMS centralizado</text>
<text x="652" y="353" text-anchor="middle" font-family="Segoe UI, Arial, sans-serif" font-size="13" fill="#0f172a">APP-02 sobre AKS</text>


<rect x="531" y="402" width="242" height="78" rx="10" fill="#e0f2fe" stroke="#0284c7" stroke-width="2"/>
<text x="652" y="438" text-anchor="middle" font-family="Segoe UI, Arial, sans-serif" font-size="13" fill="#0f172a">Inventario y Reservas</text>
<text x="652" y="455" text-anchor="middle" font-family="Segoe UI, Arial, sans-serif" font-size="13" fill="#0f172a">AKS</text>


<rect x="531" y="504" width="242" height="78" rx="10" fill="#e0f2fe" stroke="#0284c7" stroke-width="2"/>
<text x="652" y="540" text-anchor="middle" font-family="Segoe UI, Arial, sans-serif" font-size="13" fill="#0f172a">Repositorio transaccional</text>
<text x="652" y="557" text-anchor="middle" font-family="Segoe UI, Arial, sans-serif" font-size="13" fill="#0f172a">Azure SQL</text>


<rect x="531" y="606" width="242" height="78" rx="10" fill="#e0f2fe" stroke="#0284c7" stroke-width="2"/>
<text x="652" y="642" text-anchor="middle" font-family="Segoe UI, Arial, sans-serif" font-size="13" fill="#0f172a">Bus Eventos Central</text>
<text x="652" y="659" text-anchor="middle" font-family="Segoe UI, Arial, sans-serif" font-size="13" fill="#0f172a">PLT-03 Event Hubs</text>


<rect x="531" y="708" width="242" height="78" rx="10" fill="#e0f2fe" stroke="#0284c7" stroke-width="2"/>
<text x="652" y="744" text-anchor="middle" font-family="Segoe UI, Arial, sans-serif" font-size="13" fill="#0f172a">Colas, DLQ y Replay</text>
<text x="652" y="761" text-anchor="middle" font-family="Segoe UI, Arial, sans-serif" font-size="13" fill="#0f172a">Azure Service Bus</text>


<rect x="531" y="810" width="242" height="78" rx="10" fill="#e0f2fe" stroke="#0284c7" stroke-width="2"/>
<text x="652" y="846" text-anchor="middle" font-family="Segoe UI, Arial, sans-serif" font-size="13" fill="#0f172a">Observabilidad</text>
<text x="652" y="863" text-anchor="middle" font-family="Segoe UI, Arial, sans-serif" font-size="13" fill="#0f172a">PLT-01</text>

<g filter="url(#shadow)"><rect x="962" y="146" width="300" height="786" rx="14" fill="#fff7ed" stroke="#ea580c" stroke-width="2" opacity="0.72"/></g>
<text x="978" y="176" font-family="Segoe UI, Arial, sans-serif" font-size="14" font-weight="700" fill="#ea580c">AWS</text>

<rect x="991" y="198" width="242" height="78" rx="10" fill="#fff7ed" stroke="#ea580c" stroke-width="2"/>
<text x="1112" y="234" text-anchor="middle" font-family="Segoe UI, Arial, sans-serif" font-size="13" fill="#0f172a">Backend movil</text>
<text x="1112" y="251" text-anchor="middle" font-family="Segoe UI, Arial, sans-serif" font-size="13" fill="#0f172a">ECS/Lambda</text>


<rect x="991" y="300" width="242" height="78" rx="10" fill="#fff7ed" stroke="#ea580c" stroke-width="2"/>
<text x="1112" y="336" text-anchor="middle" font-family="Segoe UI, Arial, sans-serif" font-size="13" fill="#0f172a">Repositorio sync movil</text>
<text x="1112" y="353" text-anchor="middle" font-family="Segoe UI, Arial, sans-serif" font-size="13" fill="#0f172a">DynamoDB</text>


<rect x="991" y="402" width="242" height="78" rx="10" fill="#fff7ed" stroke="#ea580c" stroke-width="2"/>
<text x="1112" y="438" text-anchor="middle" font-family="Segoe UI, Arial, sans-serif" font-size="13" fill="#0f172a">Repositorio evidencias</text>
<text x="1112" y="455" text-anchor="middle" font-family="Segoe UI, Arial, sans-serif" font-size="13" fill="#0f172a">S3 + KMS</text>


<rect x="991" y="504" width="242" height="78" rx="10" fill="#fff7ed" stroke="#ea580c" stroke-width="2"/>
<text x="1112" y="540" text-anchor="middle" font-family="Segoe UI, Arial, sans-serif" font-size="13" fill="#0f172a">Buffer movil</text>
<text x="1112" y="557" text-anchor="middle" font-family="Segoe UI, Arial, sans-serif" font-size="13" fill="#0f172a">SQS/EventBridge</text>

<g filter="url(#shadow)"><rect x="1422" y="146" width="300" height="786" rx="14" fill="#eef2ff" stroke="#4f46e5" stroke-width="2" opacity="0.72"/></g>
<text x="1438" y="176" font-family="Segoe UI, Arial, sans-serif" font-size="14" font-weight="700" fill="#4f46e5">GCP</text>

<rect x="1451" y="198" width="242" height="78" rx="10" fill="#eef2ff" stroke="#4f46e5" stroke-width="2"/>
<text x="1572" y="234" text-anchor="middle" font-family="Segoe UI, Arial, sans-serif" font-size="13" fill="#0f172a">Canal analitico</text>
<text x="1572" y="251" text-anchor="middle" font-family="Segoe UI, Arial, sans-serif" font-size="13" fill="#0f172a">Pub/Sub</text>


<rect x="1451" y="300" width="242" height="78" rx="10" fill="#eef2ff" stroke="#4f46e5" stroke-width="2"/>
<text x="1572" y="336" text-anchor="middle" font-family="Segoe UI, Arial, sans-serif" font-size="13" fill="#0f172a">Optimizador dinamico</text>
<text x="1572" y="353" text-anchor="middle" font-family="Segoe UI, Arial, sans-serif" font-size="13" fill="#0f172a">Cloud Run/GKE</text>


<rect x="1451" y="402" width="242" height="78" rx="10" fill="#eef2ff" stroke="#4f46e5" stroke-width="2"/>
<text x="1572" y="438" text-anchor="middle" font-family="Segoe UI, Arial, sans-serif" font-size="13" fill="#0f172a">Repositorio analitico</text>
<text x="1572" y="455" text-anchor="middle" font-family="Segoe UI, Arial, sans-serif" font-size="13" fill="#0f172a">BigQuery</text>


<rect x="1451" y="504" width="242" height="78" rx="10" fill="#eef2ff" stroke="#4f46e5" stroke-width="2"/>
<text x="1572" y="540" text-anchor="middle" font-family="Segoe UI, Arial, sans-serif" font-size="13" fill="#0f172a">Prediccion riesgo</text>
<text x="1572" y="557" text-anchor="middle" font-family="Segoe UI, Arial, sans-serif" font-size="13" fill="#0f172a">Vertex AI</text>

<g filter="url(#shadow)"><rect x="1882" y="146" width="300" height="786" rx="14" fill="#f8fafc" stroke="#64748b" stroke-width="2" opacity="0.72"/></g>
<text x="1898" y="176" font-family="Segoe UI, Arial, sans-serif" font-size="14" font-weight="700" fill="#64748b">Externos</text>

<rect x="1911" y="198" width="242" height="78" rx="10" fill="#f8fafc" stroke="#64748b" stroke-width="2"/>
<text x="2032" y="242" text-anchor="middle" font-family="Segoe UI, Arial, sans-serif" font-size="13" fill="#0f172a">WMS APP-06 / APP-07</text>


<rect x="1911" y="300" width="242" height="78" rx="10" fill="#f8fafc" stroke="#64748b" stroke-width="2"/>
<text x="2032" y="344" text-anchor="middle" font-family="Segoe UI, Arial, sans-serif" font-size="13" fill="#0f172a">ERP APP-25</text>


<rect x="1911" y="402" width="242" height="78" rx="10" fill="#f8fafc" stroke="#64748b" stroke-width="2"/>
<text x="2032" y="446" text-anchor="middle" font-family="Segoe UI, Arial, sans-serif" font-size="13" fill="#0f172a">Portal B2B / CRM</text>


<rect x="1911" y="504" width="242" height="78" rx="10" fill="#f8fafc" stroke="#64748b" stroke-width="2"/>
<text x="2032" y="548" text-anchor="middle" font-family="Segoe UI, Arial, sans-serif" font-size="13" fill="#0f172a">Canales legados</text>


<path d="M 313 237 L 422 237 L 422 237 L 531 237" fill="none" stroke="#475569" stroke-width="2" marker-end="url(#arrow)"/>
<rect x="383" y="226" width="78" height="22" rx="6" fill="white" stroke="#cbd5e1"/><text x="422" y="241" text-anchor="middle" font-family="Segoe UI, Arial, sans-serif" font-size="10" fill="#334155">API</text>


<path d="M 773 237 L 785 237 L 785 339 L 773 339" fill="none" stroke="#475569" stroke-width="2" marker-end="url(#arrow)"/>
<rect x="746" y="277" width="78" height="22" rx="6" fill="white" stroke="#cbd5e1"/><text x="785" y="292" text-anchor="middle" font-family="Segoe UI, Arial, sans-serif" font-size="10" fill="#334155">REST</text>


<path d="M 773 339 L 785 339 L 785 441 L 773 441" fill="none" stroke="#475569" stroke-width="2" marker-end="url(#arrow)"/>
<rect x="746" y="379" width="78" height="22" rx="6" fill="white" stroke="#cbd5e1"/><text x="785" y="394" text-anchor="middle" font-family="Segoe UI, Arial, sans-serif" font-size="10" fill="#334155">reserva</text>


<path d="M 773 339 L 785 339 L 785 543 L 773 543" fill="none" stroke="#475569" stroke-width="2" marker-end="url(#arrow)"/>
<rect x="746" y="430" width="78" height="22" rx="6" fill="white" stroke="#cbd5e1"/><text x="785" y="445" text-anchor="middle" font-family="Segoe UI, Arial, sans-serif" font-size="10" fill="#334155">estado</text>


<path d="M 773 441 L 785 441 L 785 543 L 773 543" fill="none" stroke="#475569" stroke-width="2" marker-end="url(#arrow)"/>
<rect x="746" y="481" width="78" height="22" rx="6" fill="white" stroke="#cbd5e1"/><text x="785" y="496" text-anchor="middle" font-family="Segoe UI, Arial, sans-serif" font-size="10" fill="#334155">stock</text>


<path d="M 773 339 L 785 339 L 785 645 L 773 645" fill="none" stroke="#475569" stroke-width="2" marker-end="url(#arrow)"/>
<rect x="746" y="517" width="78" height="22" rx="6" fill="white" stroke="#cbd5e1"/><text x="785" y="532" text-anchor="middle" font-family="Segoe UI, Arial, sans-serif" font-size="10" fill="#334155">events</text>


<path d="M 773 441 L 785 441 L 785 645 L 773 645" fill="none" stroke="#475569" stroke-width="2" marker-end="url(#arrow)"/>
<rect x="746" y="550" width="78" height="22" rx="6" fill="white" stroke="#cbd5e1"/><text x="785" y="565" text-anchor="middle" font-family="Segoe UI, Arial, sans-serif" font-size="10" fill="#334155">events</text>


<path d="M 773 645 L 785 645 L 785 747 L 773 747" fill="none" stroke="#475569" stroke-width="2" marker-end="url(#arrow)"/>
<rect x="746" y="685" width="78" height="22" rx="6" fill="white" stroke="#cbd5e1"/><text x="785" y="700" text-anchor="middle" font-family="Segoe UI, Arial, sans-serif" font-size="10" fill="#334155">colas</text>


<path d="M 313 339 L 313 960 L 991 960 L 991 237" fill="none" stroke="#475569" stroke-width="2" marker-end="url(#arrow)"/>
<rect x="613" y="949" width="78" height="22" rx="6" fill="white" stroke="#cbd5e1"/><text x="652" y="964" text-anchor="middle" font-family="Segoe UI, Arial, sans-serif" font-size="10" fill="#334155">mobile</text>


<path d="M 1233 237 L 1245 237 L 1245 339 L 1233 339" fill="none" stroke="#475569" stroke-width="2" marker-end="url(#arrow)"/>
<rect x="1206" y="277" width="78" height="22" rx="6" fill="white" stroke="#cbd5e1"/><text x="1245" y="292" text-anchor="middle" font-family="Segoe UI, Arial, sans-serif" font-size="10" fill="#334155">estado</text>


<path d="M 1233 237 L 1245 237 L 1245 441 L 1233 441" fill="none" stroke="#475569" stroke-width="2" marker-end="url(#arrow)"/>
<rect x="1206" y="328" width="78" height="22" rx="6" fill="white" stroke="#cbd5e1"/><text x="1245" y="343" text-anchor="middle" font-family="Segoe UI, Arial, sans-serif" font-size="10" fill="#334155">evidencia</text>


<path d="M 1233 237 L 1245 237 L 1245 543 L 1233 543" fill="none" stroke="#475569" stroke-width="2" marker-end="url(#arrow)"/>
<rect x="1206" y="379" width="78" height="22" rx="6" fill="white" stroke="#cbd5e1"/><text x="1245" y="394" text-anchor="middle" font-family="Segoe UI, Arial, sans-serif" font-size="10" fill="#334155">buffer</text>


<path d="M 991 543 L 882 543 L 882 645 L 773 645" fill="none" stroke="#475569" stroke-width="2" marker-end="url(#arrow)"/>
<rect x="843" y="583" width="78" height="22" rx="6" fill="white" stroke="#cbd5e1"/><text x="882" y="598" text-anchor="middle" font-family="Segoe UI, Arial, sans-serif" font-size="10" fill="#334155">bridge</text>


<path d="M 773 645 L 773 986 L 1451 986 L 1451 237" fill="none" stroke="#475569" stroke-width="2" marker-end="url(#arrow)"/>
<rect x="1073" y="975" width="78" height="22" rx="6" fill="white" stroke="#cbd5e1"/><text x="1112" y="990" text-anchor="middle" font-family="Segoe UI, Arial, sans-serif" font-size="10" fill="#334155">bridge</text>


<path d="M 1693 237 L 1705 237 L 1705 339 L 1693 339" fill="none" stroke="#475569" stroke-width="2" marker-end="url(#arrow)"/>
<rect x="1666" y="277" width="78" height="22" rx="6" fill="white" stroke="#cbd5e1"/><text x="1705" y="292" text-anchor="middle" font-family="Segoe UI, Arial, sans-serif" font-size="10" fill="#334155">eventos</text>


<path d="M 1693 339 L 1705 339 L 1705 441 L 1693 441" fill="none" stroke="#475569" stroke-width="2" marker-end="url(#arrow)"/>
<rect x="1666" y="379" width="78" height="22" rx="6" fill="white" stroke="#cbd5e1"/><text x="1705" y="394" text-anchor="middle" font-family="Segoe UI, Arial, sans-serif" font-size="10" fill="#334155">features</text>


<path d="M 1693 441 L 1705 441 L 1705 543 L 1693 543" fill="none" stroke="#475569" stroke-width="2" marker-end="url(#arrow)"/>
<rect x="1666" y="481" width="78" height="22" rx="6" fill="white" stroke="#cbd5e1"/><text x="1705" y="496" text-anchor="middle" font-family="Segoe UI, Arial, sans-serif" font-size="10" fill="#334155">modelo</text>


<path d="M 773 441 L 773 1012 L 1911 1012 L 1911 237" fill="none" stroke="#475569" stroke-width="2" marker-end="url(#arrow)"/>
<rect x="1303" y="1001" width="78" height="22" rx="6" fill="white" stroke="#cbd5e1"/><text x="1342" y="1016" text-anchor="middle" font-family="Segoe UI, Arial, sans-serif" font-size="10" fill="#334155">WMS</text>


<path d="M 773 441 L 773 1038 L 1911 1038 L 1911 339" fill="none" stroke="#475569" stroke-width="2" marker-end="url(#arrow)"/>
<rect x="1303" y="1027" width="78" height="22" rx="6" fill="white" stroke="#cbd5e1"/><text x="1342" y="1042" text-anchor="middle" font-family="Segoe UI, Arial, sans-serif" font-size="10" fill="#334155">ERP</text>


<path d="M 773 747 L 773 1064 L 1911 1064 L 1911 441" fill="none" stroke="#475569" stroke-width="2" marker-end="url(#arrow)"/>
<rect x="1303" y="1053" width="78" height="22" rx="6" fill="white" stroke="#cbd5e1"/><text x="1342" y="1068" text-anchor="middle" font-family="Segoe UI, Arial, sans-serif" font-size="10" fill="#334155">estado</text>


<path d="M 1911 543 L 1911 1090 L 773 1090 L 773 747" fill="none" stroke="#475569" stroke-width="2" marker-end="url(#arrow)"/>
<rect x="1303" y="1079" width="78" height="22" rx="6" fill="white" stroke="#cbd5e1"/><text x="1342" y="1094" text-anchor="middle" font-family="Segoe UI, Arial, sans-serif" font-size="10" fill="#334155">adaptador</text>


<path d="M 313 441 L 398 441 L 398 849 L 531 849" fill="none" stroke="#475569" stroke-width="2" marker-end="url(#arrow)"/>
<rect x="357" y="634" width="82" height="22" rx="6" fill="white" stroke="#cbd5e1"/><text x="398" y="649" text-anchor="middle" font-family="Segoe UI, Arial, sans-serif" font-size="10" fill="#334155">dashboards</text>

</svg>